<svg width="64" height="64" viewBox="0 0 64 64" fill="none" xmlns="http://www.w3.org/2000/svg">
<rect width="64" height="64" rx="32" fill="white"/>
<path d="M40 30C40 34.4183 32 42 32 42C32 42 24 34.4183 24 30C24 25.5817 27.5817 22 32 22C36.4183 22 40 25.5817 40 30Z" fill="url(#paint0_linear_716_28575)" stroke="url(#paint1_linear_716_28575)" stroke-width="1.5"/>
<path d="M32 31C32.5523 31 33 30.5523 33 30C33 29.4477 32.5523 29 32 29C31.4477 29 31 29.4477 31 30C31 30.5523 31.4477 31 32 31Z" fill="url(#paint2_linear_716_28575)" stroke="white" stroke-width="2" stroke-linecap="round" stroke-linejoin="round"/>
<defs>
<linearGradient id="paint0_linear_716_28575" x1="24.3579" y1="42" x2="41.2456" y2="40.799" gradientUnits="userSpaceOnUse">
<stop stop-color="#00469F"/>
<stop offset="1" stop-color="#1E79D6"/>
</linearGradient>
<linearGradient id="paint1_linear_716_28575" x1="24.3579" y1="42" x2="41.2456" y2="40.799" gradientUnits="userSpaceOnUse">
<stop stop-color="#00469F"/>
<stop offset="1" stop-color="#1E79D6"/>
</linearGradient>
<linearGradient id="paint2_linear_716_28575" x1="31.0447" y1="31" x2="33.1497" y2="30.8129" gradientUnits="userSpaceOnUse">
<stop stop-color="#00469F"/>
<stop offset="1" stop-color="#1E79D6"/>
</linearGradient>
</defs>
</svg>
