<svg width="222" height="171" viewBox="0 0 222 171" fill="none" xmlns="http://www.w3.org/2000/svg">
<circle cx="136.653" cy="86.2653" r="73.8717" stroke="#F5F5F5" stroke-width="15.3149"/>
<path d="M135.5 0C119.014 -1.94325e-07 102.871 4.65691 88.9725 13.4222C75.0743 22.1875 63.9997 34.6961 57.0532 49.4747C50.1068 64.2533 47.5777 80.6863 49.7639 96.8381C51.9502 112.99 58.7606 128.188 69.3932 140.642C80.0257 153.095 94.0375 162.287 109.778 167.132C125.519 171.978 142.332 172.277 158.239 167.993C174.145 163.709 188.482 155.021 199.56 142.953C210.639 130.885 217.997 115.939 220.769 99.8749L198.497 96.1202C196.449 107.988 191.013 119.031 182.828 127.947C174.643 136.863 164.051 143.281 152.299 146.446C140.548 149.611 128.126 149.39 116.497 145.81C104.867 142.23 94.5154 135.44 86.6601 126.239C78.8047 117.038 73.7731 105.81 72.1579 93.8766C70.5427 81.9436 72.4112 69.8029 77.5433 58.8844C82.6754 47.9659 90.8573 38.7245 101.125 32.2487C111.393 25.7729 123.32 22.3323 135.5 22.3323V0Z" fill="#DE2879"/>
<path d="M149.265 56.5364L5.12516 56.5364C2.63747 56.5364 0.620789 58.553 0.620789 61.0407L0.620789 107.886C0.620789 110.374 2.63746 112.391 5.12516 112.391H66.8351L72.6908 118.246L78.5464 112.391H149.265C151.753 112.391 153.769 110.374 153.769 107.886V61.0408C153.769 58.5531 151.753 56.5364 149.265 56.5364Z" fill="#293134"/>
<path d="M13.1332 78.9993H14.5096L18.3065 71.4396V70.272H12.5366V71.4013H16.9429V71.4652L13.1332 78.9993ZM19.6684 78.9993H25.4127V77.87H21.4837V77.8061L23.2181 75.9907C24.8161 74.3757 25.2721 73.6044 25.2721 72.6285C25.2721 71.2265 24.1301 70.1527 22.4852 70.1527C20.8531 70.1527 19.6599 71.2095 19.6599 72.8032H20.917C20.9127 71.8657 21.5178 71.2521 22.4596 71.2521C23.346 71.2521 24.0193 71.7976 24.0193 72.6669C24.0193 73.4382 23.559 73.9922 22.6215 74.9851L19.6684 78.0447V78.9993ZM27.7643 79.0802C28.2288 79.0802 28.6166 78.701 28.6166 78.228C28.6166 77.7635 28.2288 77.3799 27.7643 77.3799C27.2956 77.3799 26.912 77.7635 26.912 78.228C26.912 78.701 27.2956 79.0802 27.7643 79.0802ZM32.9199 79.1186C34.7011 79.1186 36.0094 78.0532 36.0051 76.6044C36.0094 75.5007 35.3403 74.7081 34.1812 74.5291V74.4609C35.0932 74.2265 35.6855 73.5106 35.6812 72.5305C35.6855 71.2478 34.6329 70.1527 32.954 70.1527C31.3517 70.1527 30.0648 71.12 30.0222 72.539H31.2963C31.3261 71.7379 32.0804 71.2521 32.9369 71.2521C33.8275 71.2521 34.4114 71.7933 34.4071 72.5987C34.4114 73.4424 33.7338 73.9964 32.7665 73.9964H32.0293V75.0703H32.7665C33.9767 75.0703 34.6756 75.6839 34.6756 76.5618C34.6756 77.4098 33.9383 77.9851 32.9114 77.9851C31.9653 77.9851 31.2281 77.4993 31.177 76.7237H29.8389C29.8943 78.147 31.1557 79.1186 32.9199 79.1186ZM42.0513 77.3629C42.0556 78.3473 42.6735 79.1782 43.8283 79.1782C44.9703 79.1782 45.5968 78.3473 45.5968 77.3629V76.9027C45.5968 75.914 44.9874 75.0873 43.8283 75.0873C42.6905 75.0873 42.0556 75.9183 42.0513 76.9027V77.3629ZM37.6621 72.3686C37.6621 73.353 38.2843 74.1839 39.4391 74.1839C40.5769 74.1839 41.2076 73.3572 41.2033 72.3686V71.9084C41.2076 70.9197 40.5939 70.093 39.4391 70.093C38.3056 70.093 37.6621 70.9197 37.6621 71.9084V72.3686ZM38.0201 78.9993H39.0385L45.0385 70.272H44.0201L38.0201 78.9993ZM43.0442 76.9027C43.0485 76.4126 43.2615 75.9396 43.8283 75.9396C44.4164 75.9396 44.5996 76.4126 44.5996 76.9027V77.3629C44.5996 77.853 44.3993 78.326 43.8283 78.326C43.2487 78.326 43.0485 77.8487 43.0442 77.3629V76.9027ZM38.6593 71.9084C38.6593 71.4226 38.8723 70.9453 39.4391 70.9453C40.0272 70.9453 40.2104 71.4183 40.2104 71.9084V72.3686C40.2104 72.8586 40.0101 73.3317 39.4391 73.3317C38.8595 73.3317 38.6593 72.8586 38.6593 72.3686V71.9084ZM53.1433 79.1314C54.9885 79.1314 56.1945 77.7805 56.1945 75.7564C56.1945 73.7194 54.9885 72.3686 53.1433 72.3686C51.2982 72.3686 50.0922 73.7194 50.0922 75.7564C50.0922 77.7805 51.2982 79.1314 53.1433 79.1314ZM53.1476 78.0618C51.9416 78.0618 51.3791 77.0092 51.3791 75.7521C51.3791 74.4993 51.9416 73.4339 53.1476 73.4339C54.345 73.4339 54.9075 74.4993 54.9075 75.7521C54.9075 77.0092 54.345 78.0618 53.1476 78.0618ZM60.6118 72.4538H59.2012V71.8657C59.2012 71.2862 59.4399 70.9709 60.062 70.9709C60.3262 70.9709 60.5137 71.0305 60.6331 71.0689L60.9314 70.0376C60.7524 69.9694 60.3816 69.8629 59.866 69.8629C58.8305 69.8629 57.9228 70.468 57.9228 71.6953V72.4538H56.9129V73.4765H57.9228V78.9993H59.2012V73.4765H60.6118V72.4538ZM67.9176 72.4538H66.5752V70.8856H65.3011V72.4538H64.3423V73.4765H65.3011V77.3416C65.2968 78.5305 66.2045 79.1058 67.2102 79.0845C67.615 79.0802 67.8877 79.0035 68.0369 78.9481L67.8068 77.8956C67.7215 77.9126 67.5639 77.951 67.3593 77.951C66.946 77.951 66.5752 77.8146 66.5752 77.0774V73.4765H67.9176V72.4538ZM70.6218 75.1129C70.6218 74.0689 71.2823 73.4723 72.19 73.4723C73.0678 73.4723 73.592 74.0305 73.592 74.9893V78.9993H74.8661V74.8359C74.8661 73.2038 73.9712 72.3686 72.6246 72.3686C71.6062 72.3686 70.9925 72.8118 70.6857 73.5192H70.6047V70.272H69.3476V78.9993H70.6218V75.1129ZM79.2674 79.1314C80.695 79.1314 81.7049 78.4282 81.9947 77.3629L80.7887 77.1456C80.5586 77.7635 80.0046 78.0788 79.2802 78.0788C78.1893 78.0788 77.4563 77.3714 77.4222 76.1101H82.0756V75.6584C82.0756 73.2933 80.6609 72.3686 79.1779 72.3686C77.3541 72.3686 76.1524 73.7578 76.1524 75.7692C76.1524 77.8018 77.337 79.1314 79.2674 79.1314ZM77.4265 75.1555C77.4776 74.2265 78.1509 73.4211 79.1864 73.4211C80.1751 73.4211 80.8228 74.1541 80.8271 75.1555H77.4265ZM86.4251 78.9993H87.6993V74.9638C87.6993 74.0817 88.3172 73.468 89.0416 73.468C89.749 73.468 90.2391 73.9368 90.2391 74.6484V78.9993H91.5089V74.8274C91.5089 74.039 91.9905 73.468 92.8214 73.468C93.4947 73.468 94.0487 73.843 94.0487 74.7294V78.9993H95.3229V74.6101C95.3229 73.1143 94.4876 72.3686 93.303 72.3686C92.3612 72.3686 91.6538 72.8203 91.3385 73.5192H91.2703C90.9848 72.8032 90.3839 72.3686 89.5104 72.3686C88.6453 72.3686 88.0018 72.799 87.7291 73.5192H87.6481V72.4538H86.4251V78.9993ZM99.7316 79.1314C101.159 79.1314 102.169 78.4282 102.459 77.3629L101.253 77.1456C101.023 77.7635 100.469 78.0788 99.7444 78.0788C98.6535 78.0788 97.9205 77.3714 97.8865 76.1101H102.54V75.6584C102.54 73.2933 101.125 72.3686 99.6421 72.3686C97.8183 72.3686 96.6166 73.7578 96.6166 75.7692C96.6166 77.8018 97.8012 79.1314 99.7316 79.1314ZM97.8907 75.1555C97.9419 74.2265 98.6151 73.4211 99.6507 73.4211C100.639 73.4211 101.287 74.1541 101.291 75.1555H97.8907ZM106.284 79.1271C107.477 79.1271 107.946 78.3984 108.176 77.9808H108.282V78.9993H109.527V70.272H108.253V73.5149H108.176C107.946 73.1101 107.511 72.3686 106.292 72.3686C104.711 72.3686 103.548 73.6172 103.548 75.7393C103.548 77.8572 104.694 79.1271 106.284 79.1271ZM106.565 78.0405C105.427 78.0405 104.835 77.039 104.835 75.7265C104.835 74.4268 105.415 73.451 106.565 73.451C107.677 73.451 108.274 74.3586 108.274 75.7265C108.274 77.103 107.665 78.0405 106.565 78.0405ZM111.225 78.9993H112.499V72.4538H111.225V78.9993ZM111.869 71.4439C112.308 71.4439 112.674 71.103 112.674 70.6853C112.674 70.2677 112.308 69.9226 111.869 69.9226C111.426 69.9226 111.063 70.2677 111.063 70.6853C111.063 71.103 111.426 71.4439 111.869 71.4439ZM115.998 79.1442C117.081 79.1442 117.69 78.5944 117.933 78.1044H117.984V78.9993H119.229V74.6527C119.229 72.7478 117.729 72.3686 116.689 72.3686C115.504 72.3686 114.413 72.8459 113.987 74.039L115.184 74.3118C115.372 73.8473 115.849 73.3998 116.706 73.3998C117.528 73.3998 117.95 73.8302 117.95 74.5717V74.6015C117.95 75.066 117.473 75.0575 116.297 75.1939C115.057 75.3388 113.787 75.6626 113.787 77.1498C113.787 78.4368 114.754 79.1442 115.998 79.1442ZM116.275 78.1214C115.555 78.1214 115.035 77.7976 115.035 77.1669C115.035 76.4851 115.64 76.2422 116.378 76.1442C116.791 76.0888 117.771 75.978 117.954 75.7947V76.6385C117.954 77.414 117.336 78.1214 116.275 78.1214ZM126.976 72.4538H125.566V71.8657C125.566 71.2862 125.805 70.9709 126.427 70.9709C126.691 70.9709 126.878 71.0305 126.998 71.0689L127.296 70.0376C127.117 69.9694 126.746 69.8629 126.231 69.8629C125.195 69.8629 124.288 70.468 124.288 71.6953V72.4538H123.278V73.4765H124.288V78.9993H125.566V73.4765H126.976V72.4538ZM130.67 79.1314C132.516 79.1314 133.721 77.7805 133.721 75.7564C133.721 73.7194 132.516 72.3686 130.67 72.3686C128.825 72.3686 127.619 73.7194 127.619 75.7564C127.619 77.7805 128.825 79.1314 130.67 79.1314ZM130.675 78.0618C129.469 78.0618 128.906 77.0092 128.906 75.7521C128.906 74.4993 129.469 73.4339 130.675 73.4339C131.872 73.4339 132.435 74.4993 132.435 75.7521C132.435 77.0092 131.872 78.0618 130.675 78.0618ZM135.024 78.9993H136.298V75.0021C136.298 74.1456 136.958 73.5277 137.862 73.5277C138.126 73.5277 138.424 73.5746 138.527 73.6044V72.3856C138.399 72.3686 138.147 72.3558 137.985 72.3558C137.218 72.3558 136.562 72.7905 136.323 73.4936H136.255V72.4538H135.024V78.9993ZM16.129 94.9993H17.1517L17.5352 92.664H18.7923L18.9585 91.6413H17.7014L18.0338 89.6299H19.2994L19.4656 88.6072H18.2L18.5835 86.272H17.5608L17.1773 88.6072H15.1318L15.5153 86.272H14.4926L14.1091 88.6072H12.852L12.6858 89.6299H13.9429L13.6105 91.6413H12.3449L12.1787 92.664H13.4443L13.0608 94.9993H14.0835L14.467 92.664H16.5125L16.129 94.9993ZM14.6332 91.6413L14.9656 89.6299H17.0111L16.6787 91.6413H14.6332ZM25.2817 90.0518C25.0175 89.0334 24.2206 88.3686 22.8058 88.3686C21.3271 88.3686 20.2788 89.1484 20.2788 90.3075C20.2788 91.2365 20.8413 91.8544 22.0686 92.1271L23.1766 92.37C23.8073 92.5106 24.1013 92.7919 24.1013 93.201C24.1013 93.7081 23.5601 94.1044 22.7249 94.1044C21.9621 94.1044 21.472 93.7763 21.3186 93.1328L20.0871 93.3203C20.3001 94.4794 21.2632 95.1314 22.7334 95.1314C24.3144 95.1314 25.4095 94.2919 25.4095 93.1072C25.4095 92.1825 24.8215 91.6115 23.6198 91.3345L22.58 91.0959C21.8598 90.9254 21.5487 90.6825 21.553 90.2393C21.5487 89.7365 22.0942 89.3785 22.8186 89.3785C23.6112 89.3785 23.9777 89.8174 24.1269 90.2564L25.2817 90.0518ZM30.8368 92.2848C30.841 93.397 30.0143 93.9254 29.2984 93.9254C28.5101 93.9254 27.9646 93.3544 27.9646 92.4638V88.4538H26.6904V92.6172C26.6904 94.2407 27.5811 95.0845 28.8382 95.0845C29.8226 95.0845 30.4916 94.5646 30.7941 93.8657H30.8623V94.9993H32.1152V88.4538H30.8368V92.2848ZM34.9813 91.1129C34.9813 90.0689 35.6205 89.4723 36.5069 89.4723C37.3719 89.4723 37.8961 90.039 37.8961 90.9893V94.9993H39.1702V90.8359C39.1702 89.2166 38.2796 88.3686 36.9415 88.3686C35.9572 88.3686 35.3137 88.8246 35.0111 89.5192H34.9302V88.4538H33.7072V94.9993H34.9813V91.1129ZM40.759 94.9993H42.0332V91.0021C42.0332 90.1456 42.6937 89.5277 43.5971 89.5277C43.8613 89.5277 44.1596 89.5746 44.2619 89.6044V88.3856C44.134 88.3686 43.8826 88.3558 43.7207 88.3558C42.9536 88.3558 42.2974 88.7905 42.0588 89.4936H41.9906V88.4538H40.759V94.9993ZM45.2445 94.9993H46.5187V88.4538H45.2445V94.9993ZM45.888 87.4439C46.3269 87.4439 46.6934 87.103 46.6934 86.6853C46.6934 86.2677 46.3269 85.9226 45.888 85.9226C45.4448 85.9226 45.0826 86.2677 45.0826 86.6853C45.0826 87.103 45.4448 87.4439 45.888 87.4439ZM53.0176 90.0518C52.7534 89.0334 51.9565 88.3686 50.5418 88.3686C49.0631 88.3686 48.0148 89.1484 48.0148 90.3075C48.0148 91.2365 48.5773 91.8544 49.8046 92.1271L50.9125 92.37C51.5432 92.5106 51.8372 92.7919 51.8372 93.201C51.8372 93.7081 51.296 94.1044 50.4608 94.1044C49.698 94.1044 49.208 93.7763 49.0546 93.1328L47.823 93.3203C48.0361 94.4794 48.9992 95.1314 50.4693 95.1314C52.0503 95.1314 53.1455 94.2919 53.1455 93.1072C53.1455 92.1825 52.5574 91.6115 51.3557 91.3345L50.3159 91.0959C49.5957 90.9254 49.2847 90.6825 49.2889 90.2393C49.2847 89.7365 49.8301 89.3785 50.5546 89.3785C51.3472 89.3785 51.7136 89.8174 51.8628 90.2564L53.0176 90.0518ZM57.2474 95.1314C58.675 95.1314 59.6849 94.4282 59.9747 93.3629L58.7687 93.1456C58.5386 93.7635 57.9846 94.0788 57.2602 94.0788C56.1693 94.0788 55.4363 93.3714 55.4022 92.1101H60.0556V91.6584C60.0556 89.2933 58.6409 88.3686 57.1579 88.3686C55.3341 88.3686 54.1324 89.7578 54.1324 91.7692C54.1324 93.8018 55.317 95.1314 57.2474 95.1314ZM55.4065 91.1555C55.4576 90.2265 56.1309 89.4211 57.1664 89.4211C58.1551 89.4211 58.8028 90.1541 58.8071 91.1555H55.4065ZM66.31 95.1442C67.3923 95.1442 68.0017 94.5944 68.2446 94.1044H68.2958V94.9993H69.5401V90.6527C69.5401 88.7478 68.0401 88.3686 67.0003 88.3686C65.8156 88.3686 64.7247 88.8459 64.2986 90.039L65.496 90.3118C65.6835 89.8473 66.1608 89.3998 67.0173 89.3998C67.8398 89.3998 68.2617 89.8302 68.2617 90.5717V90.6015C68.2617 91.066 67.7844 91.0575 66.6083 91.1939C65.3682 91.3388 64.0983 91.6626 64.0983 93.1498C64.0983 94.4368 65.0656 95.1442 66.31 95.1442ZM66.587 94.1214C65.8668 94.1214 65.3469 93.7976 65.3469 93.1669C65.3469 92.4851 65.952 92.2422 66.6892 92.1442C67.1026 92.0888 68.0827 91.978 68.2659 91.7947V92.6385C68.2659 93.414 67.648 94.1214 66.587 94.1214ZM71.1172 94.9993H72.3913V91.0021C72.3913 90.1456 73.0518 89.5277 73.9552 89.5277C74.2194 89.5277 74.5177 89.5746 74.62 89.6044V88.3856C74.4922 88.3686 74.2407 88.3558 74.0788 88.3558C73.3118 88.3558 72.6555 88.7905 72.4169 89.4936H72.3487V88.4538H71.1172V94.9993ZM78.1893 95.1314C79.6168 95.1314 80.6268 94.4282 80.9166 93.3629L79.7106 93.1456C79.4805 93.7635 78.9265 94.0788 78.2021 94.0788C77.1112 94.0788 76.3782 93.3714 76.3441 92.1101H80.9975V91.6584C80.9975 89.2933 79.5827 88.3686 78.0998 88.3686C76.2759 88.3686 75.0742 89.7578 75.0742 91.7692C75.0742 93.8018 76.2589 95.1314 78.1893 95.1314ZM76.3484 91.1555C76.3995 90.2265 77.0728 89.4211 78.1083 89.4211C79.097 89.4211 79.7447 90.1541 79.7489 91.1555H76.3484ZM85.347 97.4538H86.6212V93.9808H86.6979C86.928 94.3984 87.3967 95.1271 88.5899 95.1271C90.1751 95.1271 91.3257 93.8572 91.3257 91.7393C91.3257 89.6172 90.1581 88.3686 88.5771 88.3686C87.3626 88.3686 86.9237 89.1101 86.6979 89.5149H86.5913V88.4538H85.347V97.4538ZM86.5956 91.7265C86.5956 90.3586 87.1922 89.451 88.3044 89.451C89.4592 89.451 90.0388 90.4268 90.0388 91.7265C90.0388 93.039 89.4422 94.0405 88.3044 94.0405C87.2092 94.0405 86.5956 93.103 86.5956 91.7265ZM93.9074 91.1129C93.9074 90.0689 94.5679 89.4723 95.4756 89.4723C96.3534 89.4723 96.8776 90.0305 96.8776 90.9893V94.9993H98.1517V90.8359C98.1517 89.2038 97.2568 88.3686 95.9102 88.3686C94.8918 88.3686 94.2781 88.8118 93.9713 89.5192H93.8904V86.272H92.6333V94.9993H93.9074V91.1129ZM102.489 95.1314C104.334 95.1314 105.54 93.7805 105.54 91.7564C105.54 89.7194 104.334 88.3686 102.489 88.3686C100.644 88.3686 99.438 89.7194 99.438 91.7564C99.438 93.7805 100.644 95.1314 102.489 95.1314ZM102.493 94.0618C101.287 94.0618 100.725 93.0092 100.725 91.7521C100.725 90.4993 101.287 89.4339 102.493 89.4339C103.691 89.4339 104.253 90.4993 104.253 91.7521C104.253 93.0092 103.691 94.0618 102.493 94.0618ZM109.898 88.4538H108.556V86.8856H107.281V88.4538H106.323V89.4765H107.281V93.3416C107.277 94.5305 108.185 95.1058 109.19 95.0845C109.595 95.0802 109.868 95.0035 110.017 94.9481L109.787 93.8956C109.702 93.9126 109.544 93.951 109.34 93.951C108.926 93.951 108.556 93.8146 108.556 93.0774V89.4765H109.898V88.4538ZM113.874 95.1314C115.719 95.1314 116.925 93.7805 116.925 91.7564C116.925 89.7194 115.719 88.3686 113.874 88.3686C112.029 88.3686 110.823 89.7194 110.823 91.7564C110.823 93.7805 112.029 95.1314 113.874 95.1314ZM113.878 94.0618C112.672 94.0618 112.11 93.0092 112.11 91.7521C112.11 90.4993 112.672 89.4339 113.878 89.4339C115.076 89.4339 115.638 90.4993 115.638 91.7521C115.638 93.0092 115.076 94.0618 113.878 94.0618ZM123.132 90.0518C122.868 89.0334 122.071 88.3686 120.656 88.3686C119.178 88.3686 118.129 89.1484 118.129 90.3075C118.129 91.2365 118.692 91.8544 119.919 92.1271L121.027 92.37C121.658 92.5106 121.952 92.7919 121.952 93.201C121.952 93.7081 121.411 94.1044 120.575 94.1044C119.813 94.1044 119.323 93.7763 119.169 93.1328L117.938 93.3203C118.151 94.4794 119.114 95.1314 120.584 95.1314C122.165 95.1314 123.26 94.2919 123.26 93.1072C123.26 92.1825 122.672 91.6115 121.47 91.3345L120.431 91.0959C119.71 90.9254 119.399 90.6825 119.404 90.2393C119.399 89.7365 119.945 89.3785 120.669 89.3785C121.462 89.3785 121.828 89.8174 121.977 90.2564L123.132 90.0518ZM125.381 95.0802C125.845 95.0802 126.233 94.701 126.233 94.228C126.233 93.7635 125.845 93.3799 125.381 93.3799C124.912 93.3799 124.528 93.7635 124.528 94.228C124.528 94.701 124.912 95.0802 125.381 95.0802Z" fill="white"/>
</svg>
