<svg width="19" height="19" viewBox="0 0 19 19" fill="none" xmlns="http://www.w3.org/2000/svg">
<path d="M6.72289 9.15603C6.72289 8.56731 6.89746 7.9918 7.22454 7.5023C7.55162 7.01279 8.01651 6.63126 8.56042 6.40597C9.10434 6.18067 9.70284 6.12172 10.2803 6.23658C10.8577 6.35143 11.3881 6.63493 11.8044 7.05122C12.2206 7.46752 12.5041 7.9979 12.619 8.57532C12.7339 9.15273 12.6749 9.75124 12.4496 10.2952C12.2243 10.8391 11.8428 11.304 11.3533 11.631C10.8638 11.9581 10.2883 12.1327 9.69954 12.1327C8.91008 12.1327 8.15296 11.8191 7.59473 11.2608C7.0365 10.7026 6.72289 9.94549 6.72289 9.15603ZM5.11357 9.15603C5.11357 10.0629 5.38249 10.9495 5.88632 11.7035C6.39015 12.4576 7.10627 13.0453 7.94412 13.3924C8.78197 13.7395 9.70392 13.8303 10.5934 13.6534C11.4829 13.4765 12.2999 13.0399 12.9412 12.3986C13.5825 11.7574 14.0193 10.9404 14.1963 10.0509C14.3733 9.16148 14.2825 8.23951 13.9356 7.40162C13.5886 6.56373 13.0009 5.84755 12.2469 5.34363C11.4929 4.83971 10.6064 4.57069 9.69954 4.57059C9.09736 4.57056 8.50108 4.68916 7.94474 4.91959C7.3884 5.15002 6.88289 5.48778 6.45709 5.91358C6.03128 6.33939 5.69352 6.84489 5.46309 7.40123C5.23266 7.95758 5.11407 8.55386 5.11409 9.15603H5.11357ZM13.3941 4.38884C13.394 4.60078 13.4568 4.80798 13.5745 4.98424C13.6922 5.1605 13.8595 5.29791 14.0553 5.37908C14.2511 5.46025 14.4665 5.48154 14.6744 5.44026C14.8823 5.39898 15.0733 5.29698 15.2232 5.14717C15.3731 4.99735 15.4752 4.80644 15.5166 4.59859C15.558 4.39073 15.5369 4.17526 15.4558 3.97943C15.3748 3.78359 15.2375 3.61619 15.0613 3.49838C14.8851 3.38058 14.678 3.31766 14.466 3.31759C14.1819 3.31773 13.9095 3.43063 13.7086 3.63148C13.5077 3.83234 13.3947 4.10474 13.3944 4.38884H13.3941ZM6.09254 16.4248C5.52623 16.4184 4.96526 16.3145 4.43419 16.1177C4.04633 15.9744 3.6954 15.7461 3.40707 15.4497C3.11022 15.162 2.88192 14.8112 2.73907 14.4233C2.54198 13.8923 2.43785 13.3313 2.43125 12.765C2.388 11.8236 2.37872 11.5409 2.37872 9.15621C2.37872 6.77156 2.388 6.48948 2.43125 5.54746C2.43837 4.98121 2.54224 4.42035 2.73837 3.88911C2.88174 3.50125 3.10996 3.15032 3.40637 2.86199C3.6942 2.56497 4.04527 2.33665 4.43349 2.19399C4.96474 1.997 5.52597 1.89305 6.09254 1.8867C7.03386 1.84345 7.31664 1.83417 9.69954 1.83417C12.0824 1.83417 12.3663 1.84345 13.3083 1.8867C13.8745 1.89381 14.4354 1.99768 14.9666 2.19382C15.3546 2.33692 15.7056 2.56518 15.9938 2.86181C16.2904 3.14996 16.5187 3.50094 16.6618 3.88893C16.8586 4.41998 16.9625 4.98096 16.9689 5.54728C17.0121 6.4893 17.0214 6.77139 17.0214 9.15603C17.0214 11.5407 17.0128 11.8228 16.9689 12.7648C16.962 13.3311 16.8582 13.892 16.6618 14.4231C16.5131 14.8083 16.2855 15.158 15.9936 15.4498C15.7016 15.7416 15.3518 15.9691 14.9666 16.1176C14.4356 16.3144 13.8746 16.4183 13.3083 16.4247C12.367 16.4679 12.0842 16.4772 9.69954 16.4772C7.31489 16.4772 7.03281 16.4686 6.09254 16.4247V16.4248ZM6.01794 0.280179C5.27717 0.294834 4.54426 0.435094 3.85042 0.694985C3.25449 0.919225 2.71462 1.27069 2.26841 1.72491C1.81373 2.1707 1.46214 2.71061 1.23831 3.30674C0.978487 4.00065 0.838287 4.73362 0.823684 5.47444C0.779735 6.42662 0.769579 6.73094 0.769579 9.15603C0.769579 11.5811 0.779735 11.8855 0.823684 12.8376C0.838356 13.5784 0.978615 14.3113 1.23849 15.0052C1.46231 15.6013 1.81383 16.1413 2.26841 16.5872C2.71477 17.0412 3.25452 17.3926 3.85024 17.6173C4.54411 17.8771 5.27701 18.0173 6.01777 18.0321C6.97047 18.0753 7.27427 18.0862 9.69937 18.0862C12.1245 18.0862 12.4288 18.076 13.381 18.0321C14.1217 18.0174 14.8546 17.8771 15.5485 17.6173C16.1418 17.3879 16.6807 17.037 17.1305 16.5872C17.5803 16.1374 17.9312 15.5985 18.1606 15.0052C18.4208 14.3114 18.5611 13.5784 18.5754 12.8376C18.6186 11.8848 18.6279 11.5811 18.6279 9.15603C18.6279 6.73094 18.6178 6.42662 18.5754 5.47444C18.5608 4.73367 18.4205 4.00075 18.1606 3.30691C17.936 2.71115 17.5846 2.17135 17.1307 1.72491C16.6849 1.27047 16.1453 0.918911 15.5495 0.69481C14.8557 0.434785 14.1227 0.294579 13.3818 0.280179C12.4298 0.23693 12.1253 0.226074 9.69954 0.226074C7.27374 0.226074 6.96977 0.23623 6.01724 0.280179" fill="url(#paint0_radial_716_8857)"/>
<path d="M6.72289 9.15603C6.72289 8.56731 6.89746 7.9918 7.22454 7.5023C7.55162 7.01279 8.01651 6.63126 8.56042 6.40597C9.10434 6.18067 9.70284 6.12172 10.2803 6.23658C10.8577 6.35143 11.3881 6.63493 11.8044 7.05122C12.2206 7.46752 12.5041 7.9979 12.619 8.57532C12.7339 9.15273 12.6749 9.75124 12.4496 10.2952C12.2243 10.8391 11.8428 11.304 11.3533 11.631C10.8638 11.9581 10.2883 12.1327 9.69954 12.1327C8.91008 12.1327 8.15296 11.8191 7.59473 11.2608C7.0365 10.7026 6.72289 9.94549 6.72289 9.15603ZM5.11357 9.15603C5.11357 10.0629 5.38249 10.9495 5.88632 11.7035C6.39015 12.4576 7.10627 13.0453 7.94412 13.3924C8.78197 13.7395 9.70392 13.8303 10.5934 13.6534C11.4829 13.4765 12.2999 13.0399 12.9412 12.3986C13.5825 11.7574 14.0193 10.9404 14.1963 10.0509C14.3733 9.16148 14.2825 8.23951 13.9356 7.40162C13.5886 6.56373 13.0009 5.84755 12.2469 5.34363C11.4929 4.83971 10.6064 4.57069 9.69954 4.57059C9.09736 4.57056 8.50108 4.68916 7.94474 4.91959C7.3884 5.15002 6.88289 5.48778 6.45709 5.91358C6.03128 6.33939 5.69352 6.84489 5.46309 7.40123C5.23266 7.95758 5.11407 8.55386 5.11409 9.15603H5.11357ZM13.3941 4.38884C13.394 4.60078 13.4568 4.80798 13.5745 4.98424C13.6922 5.1605 13.8595 5.29791 14.0553 5.37908C14.2511 5.46025 14.4665 5.48154 14.6744 5.44026C14.8823 5.39898 15.0733 5.29698 15.2232 5.14717C15.3731 4.99735 15.4752 4.80644 15.5166 4.59859C15.558 4.39073 15.5369 4.17526 15.4558 3.97943C15.3748 3.78359 15.2375 3.61619 15.0613 3.49838C14.8851 3.38058 14.678 3.31766 14.466 3.31759C14.1819 3.31773 13.9095 3.43063 13.7086 3.63148C13.5077 3.83234 13.3947 4.10474 13.3944 4.38884H13.3941ZM6.09254 16.4248C5.52623 16.4184 4.96526 16.3145 4.43419 16.1177C4.04633 15.9744 3.6954 15.7461 3.40707 15.4497C3.11022 15.162 2.88192 14.8112 2.73907 14.4233C2.54198 13.8923 2.43785 13.3313 2.43125 12.765C2.388 11.8236 2.37872 11.5409 2.37872 9.15621C2.37872 6.77156 2.388 6.48948 2.43125 5.54746C2.43837 4.98121 2.54224 4.42035 2.73837 3.88911C2.88174 3.50125 3.10996 3.15032 3.40637 2.86199C3.6942 2.56497 4.04527 2.33665 4.43349 2.19399C4.96474 1.997 5.52597 1.89305 6.09254 1.8867C7.03386 1.84345 7.31664 1.83417 9.69954 1.83417C12.0824 1.83417 12.3663 1.84345 13.3083 1.8867C13.8745 1.89381 14.4354 1.99768 14.9666 2.19382C15.3546 2.33692 15.7056 2.56518 15.9938 2.86181C16.2904 3.14996 16.5187 3.50094 16.6618 3.88893C16.8586 4.41998 16.9625 4.98096 16.9689 5.54728C17.0121 6.4893 17.0214 6.77139 17.0214 9.15603C17.0214 11.5407 17.0128 11.8228 16.9689 12.7648C16.962 13.3311 16.8582 13.892 16.6618 14.4231C16.5131 14.8083 16.2855 15.158 15.9936 15.4498C15.7016 15.7416 15.3518 15.9691 14.9666 16.1176C14.4356 16.3144 13.8746 16.4183 13.3083 16.4247C12.367 16.4679 12.0842 16.4772 9.69954 16.4772C7.31489 16.4772 7.03281 16.4688 6.09254 16.4248ZM6.01794 0.280179C5.27717 0.294834 4.54426 0.435094 3.85042 0.694985C3.25449 0.919225 2.71462 1.27069 2.26841 1.72491C1.81373 2.1707 1.46214 2.71061 1.23831 3.30674C0.978487 4.00065 0.838287 4.73362 0.823684 5.47444C0.779735 6.42662 0.769579 6.73094 0.769579 9.15603C0.769579 11.5811 0.779735 11.8855 0.823684 12.8376C0.838356 13.5784 0.978615 14.3113 1.23849 15.0052C1.46231 15.6013 1.81383 16.1413 2.26841 16.5872C2.71477 17.0412 3.25452 17.3926 3.85024 17.6173C4.54411 17.8771 5.27701 18.0173 6.01777 18.0321C6.97047 18.0753 7.27427 18.0862 9.69937 18.0862C12.1245 18.0862 12.4288 18.076 13.381 18.0321C14.1217 18.0174 14.8546 17.8771 15.5485 17.6173C16.1418 17.3879 16.6807 17.037 17.1305 16.5872C17.5803 16.1374 17.9312 15.5985 18.1606 15.0052C18.4208 14.3114 18.5611 13.5784 18.5754 12.8376C18.6186 11.8848 18.6279 11.5811 18.6279 9.15603C18.6279 6.73094 18.6178 6.42662 18.5754 5.47444C18.5608 4.73367 18.4205 4.00075 18.1606 3.30691C17.936 2.71115 17.5846 2.17135 17.1307 1.72491C16.6849 1.27047 16.1453 0.918911 15.5495 0.69481C14.8557 0.434785 14.1227 0.294579 13.3818 0.280179C12.4298 0.23693 12.1253 0.226074 9.69954 0.226074C7.27374 0.226074 6.96977 0.23623 6.01724 0.280179" fill="url(#paint1_radial_716_8857)"/>
<defs>
<radialGradient id="paint0_radial_716_8857" cx="0" cy="0" r="1" gradientUnits="userSpaceOnUse" gradientTransform="translate(3.14232 18.1704) scale(23.3137)">
<stop offset="0.09" stop-color="#FA8F21"/>
<stop offset="0.78" stop-color="#D82D7E"/>
</radialGradient>
<radialGradient id="paint1_radial_716_8857" cx="0" cy="0" r="1" gradientUnits="userSpaceOnUse" gradientTransform="translate(11.6009 18.9704) scale(18.3744)">
<stop offset="0.64" stop-color="#8C3AAA" stop-opacity="0"/>
<stop offset="1" stop-color="#8C3AAA"/>
</radialGradient>
</defs>
</svg>
