<svg width="250" height="74" viewBox="0 0 250 74" fill="none" xmlns="http://www.w3.org/2000/svg">
<path d="M28.5416 73.1427H5.04871C2.25797 73.1427 0 70.8847 0 68.094V5.04875C0 2.25801 2.25797 0 5.04871 0H28.5416C31.3324 0 33.5903 2.25801 33.5903 5.04875V68.094C33.5903 70.8847 31.3324 73.1427 28.5416 73.1427Z" fill="#C8C8C8"/>
<path d="M66.4453 33.6163H39.5527V6.72381C39.5527 3.01974 42.5464 0.026001 46.2505 0.026001H66.4453C70.1493 0.026001 73.1431 3.01974 73.1431 6.72381V26.9186C73.1431 30.5973 70.1493 33.6163 66.4453 33.6163Z" fill="#488AC9"/>
<path d="M67.7392 73.1429H44.982C41.9883 73.1429 39.5781 70.7073 39.5781 67.739V39.5779H67.7392C70.7329 39.5779 73.1431 42.0134 73.1431 44.9818V67.739C73.1431 70.7327 70.7075 73.1429 67.7392 73.1429Z" fill="#414141"/>
<path d="M96.0273 8.37305H102.319V46.9613H96.0273V8.37305ZM114.243 26.6396C115.055 26.7411 115.892 26.9948 116.806 27.4261C117.719 27.832 118.556 28.441 119.343 29.2021C120.129 29.9632 120.789 30.9019 121.296 31.9928C121.829 33.0837 122.083 34.3523 122.083 35.7984C122.083 37.5489 121.829 39.0458 121.296 40.3143C120.763 41.5828 120.129 42.623 119.343 43.4349C118.556 44.2467 117.694 44.9063 116.78 45.363C115.867 45.845 114.954 46.2002 114.116 46.4285C113.254 46.6823 112.493 46.8091 111.833 46.8852C111.173 46.9359 110.742 46.9613 110.514 46.9613H104.45V42.3439H110.159C112.011 42.3439 113.457 41.7604 114.497 40.568C115.537 39.3756 116.07 37.8026 116.07 35.7984C116.07 33.921 115.537 32.3226 114.446 31.0287C113.355 29.7348 111.782 29.1006 109.677 29.1006H104.45V24.8638H106.962C107.723 24.8638 108.51 24.8383 109.321 24.813C110.133 24.7876 110.869 24.5847 111.579 24.2295C112.29 23.8743 112.848 23.2908 113.279 22.4536C113.71 21.6163 113.939 20.3986 113.939 18.851C113.939 18.2167 113.863 17.5571 113.685 16.8974C113.507 16.2124 113.152 15.6036 112.645 15.0455C112.112 14.4873 111.376 14.0306 110.387 13.6754C109.398 13.3203 108.129 13.1427 106.505 13.1427H104.476V8.37305H107.14C108.789 8.37305 110.362 8.57596 111.909 8.95651C113.457 9.33707 114.801 9.94596 115.994 10.7832C117.186 11.6204 118.125 12.7113 118.81 14.056C119.52 15.4006 119.85 16.999 119.85 18.851C119.85 19.9419 119.672 20.9313 119.317 21.8193C118.962 22.7073 118.531 23.4938 117.998 24.1534C117.465 24.813 116.882 25.3712 116.197 25.8025C115.512 26.2084 114.877 26.5128 114.243 26.6396Z" fill="#010101"/>
<path d="M146.869 8.37232L152.679 23.3915L149.863 30.2415L139.715 8.34692H146.869V8.37232ZM161.254 8.37232H168.434L156.967 31.2563V46.9606H150.573V34.0725L161.254 8.37232Z" fill="#010101"/>
<path d="M187.234 39.9078C187.716 40.1869 188.35 40.466 189.086 40.7197C189.847 40.9734 190.608 41.227 191.42 41.4553C192.232 41.6837 193.018 41.8613 193.83 42.0135C194.642 42.1657 195.377 42.2165 196.088 42.2165H196.24V47.1891H196.138C195.301 47.1891 194.439 47.1384 193.551 47.0622C192.663 46.9861 191.749 46.8339 190.862 46.6056C189.948 46.4026 189.086 46.0981 188.274 45.7429C187.462 45.3878 186.751 44.9311 186.143 44.3983L187.234 39.9078ZM186.396 18.5206C186.396 16.973 186.65 15.603 187.183 14.3852C187.716 13.1675 188.426 12.1019 189.314 11.1632C190.202 10.2499 191.242 9.51411 192.46 8.95596C193.652 8.42318 194.921 8.06804 196.265 7.89045V13.3958C195.149 13.7763 194.21 14.4613 193.5 15.4C192.764 16.3641 192.409 17.3282 192.409 18.3176C192.409 19.6876 192.764 20.7786 193.5 21.6158C194.236 22.453 195.149 23.1888 196.265 23.823V29.7851C195.124 29.2269 193.957 28.618 192.815 27.9837C191.673 27.3495 190.608 26.5884 189.669 25.7004C188.73 24.8378 187.944 23.823 187.335 22.656C186.701 21.5143 186.396 20.1443 186.396 18.5206ZM204.46 14.3345C204.282 14.2584 204.079 14.1315 203.826 13.9793C203.572 13.8017 203.242 13.6495 202.786 13.4719C202.329 13.3197 201.745 13.1928 201.06 13.0913C200.35 12.9899 199.462 12.9645 198.396 13.0406V7.76355C199.944 7.78892 201.492 7.96654 203.09 8.27099C204.688 8.57543 205.957 9.03207 206.946 9.66632C206.743 10.123 206.49 10.6305 206.211 11.1632C205.931 11.696 205.678 12.2034 205.424 12.6854C205.17 13.1674 204.967 13.548 204.79 13.8525C204.587 14.1316 204.485 14.3092 204.46 14.3345ZM198.371 24.8632C199.513 25.396 200.705 25.9541 201.898 26.5377C203.09 27.1212 204.181 27.8569 205.17 28.7195C206.134 29.5821 206.946 30.6223 207.581 31.84C208.215 33.0578 208.519 34.58 208.519 36.4067C208.519 37.6752 208.291 38.893 207.809 40.0854C207.327 41.2778 206.667 42.3433 205.83 43.3074C204.967 44.2715 203.927 45.0833 202.659 45.7429C201.39 46.4026 199.969 46.8339 198.371 47.0622V42.0389C201.238 41.3539 202.659 39.4511 202.659 36.3306C202.659 35.1128 202.253 34.098 201.466 33.2862C200.654 32.4743 199.64 31.7385 198.371 31.0282V24.8632Z" fill="#010101"/>
<path d="M232.241 8.37305V42.2171H250V46.9867H225.848V8.39836H232.241V8.37305Z" fill="#010101"/>
<path d="M99.9093 58.5294V65.3795H98.6661V58.5294H96.332V57.3116H102.269V58.5294H99.9093Z" fill="#010101"/>
<path d="M110.945 58.5294V60.7113H114.573V61.9291H110.945V64.1617H115.106V65.3795H109.677V57.3116H114.979V58.5294H110.945V58.5294Z" fill="#010101"/>
<path d="M129.085 58.5291L128.35 59.5186C127.817 58.8844 127.03 58.5037 126.295 58.5037C124.823 58.5037 123.656 59.747 123.656 61.3453C123.656 62.9436 124.823 64.1867 126.295 64.1867C127.03 64.1867 127.792 63.8062 128.35 63.2227L129.085 64.1106C128.324 64.9225 127.259 65.4299 126.219 65.4299C124.037 65.4299 122.362 63.654 122.362 61.3199C122.362 59.0366 124.062 57.2606 126.269 57.2606C127.31 57.286 128.375 57.768 129.085 58.5291Z" fill="#010101"/>
<path d="M141.897 65.4054V62.0566H137.965V65.4054H136.722V57.3376H137.965V60.8388H141.897V57.3376H143.14V65.4054H141.897Z" fill="#010101"/>
<path d="M156.637 65.4054L152.68 59.621V65.4054H151.437V57.3376H152.654L156.612 63.1475V57.3376H157.83V65.4054H156.637Z" fill="#010101"/>
<path d="M173.432 61.3453C173.432 63.654 171.707 65.4299 169.5 65.4299C167.293 65.4299 165.567 63.654 165.567 61.3453C165.567 59.0366 167.293 57.2606 169.5 57.2606C171.707 57.2606 173.432 59.0366 173.432 61.3453ZM166.836 61.3453C166.836 62.9436 168.054 64.2121 169.5 64.2121C170.946 64.2121 172.138 62.9436 172.138 61.3453C172.138 59.747 170.946 58.5037 169.5 58.5037C168.054 58.5037 166.836 59.747 166.836 61.3453Z" fill="#010101"/>
<path d="M185.559 64.1623V65.4054H181.094V57.3376H182.337V64.1877H185.559V64.1623Z" fill="#010101"/>
<path d="M200.35 61.3453C200.35 63.654 198.625 65.4299 196.418 65.4299C194.211 65.4299 192.485 63.654 192.485 61.3453C192.485 59.0366 194.211 57.2606 196.418 57.2606C198.625 57.2606 200.35 59.0366 200.35 61.3453ZM193.779 61.3453C193.779 62.9436 194.997 64.2121 196.443 64.2121C197.889 64.2121 199.082 62.9436 199.082 61.3453C199.082 59.747 197.889 58.5037 196.443 58.5037C194.972 58.5037 193.779 59.747 193.779 61.3453Z" fill="#010101"/>
<path d="M213.923 61.4214V64.3897C213.162 65.0239 212.071 65.4299 211.056 65.4299C208.875 65.4299 207.149 63.654 207.149 61.3453C207.149 59.0366 208.875 57.2606 211.107 57.2606C212.173 57.2606 213.213 57.6919 213.949 58.4023L213.238 59.4171C212.655 58.8336 211.868 58.5037 211.107 58.5037C209.585 58.5037 208.418 59.7723 208.418 61.3706C208.418 62.9943 209.61 64.2375 211.133 64.2375C211.691 64.2375 212.3 64.0345 212.832 63.6793V61.4214H213.923V61.4214Z" fill="#010101"/>
<path d="M222.042 65.4054V57.3376H223.285V65.4054H222.042Z" fill="#010101"/>
<path d="M232.824 58.5294V60.7113H236.452V61.9291H232.824V64.1617H236.985V65.3795H231.556V57.3116H236.858V58.5294H232.824V58.5294Z" fill="#010101"/>
<path d="M249.924 58.0986L249.417 59.291C248.605 58.7583 247.818 58.5299 247.235 58.5299C246.499 58.5299 246.017 58.8344 246.017 59.3671C246.017 61.1431 250.026 60.179 250 63.0966C250 64.5427 248.833 65.4306 247.21 65.4306C246.042 65.4306 244.952 64.9232 244.19 64.1621L244.723 62.9951C245.484 63.7562 246.448 64.1621 247.235 64.1621C248.097 64.1621 248.63 63.8069 248.63 63.1727C248.63 61.3714 244.622 62.3862 244.622 59.494C244.622 58.0986 245.713 57.236 247.311 57.236C248.275 57.2613 249.214 57.5912 249.924 58.0986Z" fill="#010101"/>
</svg>
